<?xml version="1.0" encoding="utf-8"?>
<!-- Generator: Adobe Illustrator 27.5.0, SVG Export Plug-In . SVG Version: 6.00 Build 0)  -->
<svg version="1.1" xmlns="http://www.w3.org/2000/svg" xmlns:xlink="http://www.w3.org/1999/xlink" x="0px" y="0px"
	 viewBox="0 0 750 500" style="enable-background:new 0 0 750 500;" xml:space="preserve">
<g id="BACKGROUND">
	<rect style="fill:#FFFFFF;" width="750" height="500"/>
</g>
<g id="OBJECTS">
	<g>
		<defs>
			<rect id="SVGID_1_" width="750" height="500"/>
		</defs>
		<clipPath id="SVGID_00000109713737929380869770000003423009742534725286_">
			<use xlink:href="#SVGID_1_"  style="overflow:visible;"/>
		</clipPath>
		<g style="clip-path:url(#SVGID_00000109713737929380869770000003423009742534725286_);">
			<path style="fill:none;stroke:#D3E3F3;stroke-width:0.75;stroke-linecap:round;stroke-linejoin:round;stroke-miterlimit:10;" d="
				M165.789-36.152c2.343,16.811-2.779,34.524-13.732,47.49c-10.953,12.966-27.56,20.977-44.526,21.478
				c-11.075,0.327-22.012-2.378-33.074-3.001c-11.062-0.623-23.096,1.263-30.95,9.078c-10.69,10.637-9.926,28.261-5.308,42.618
				c4.618,14.356,12.356,28.004,13.338,43.053c1.702,26.06-18.543,50.089-43.139,58.868c-24.595,8.779-52.14,4.771-76.624-4.314"/>
			<path style="fill:none;stroke:#D3E3F3;stroke-width:0.75;stroke-linecap:round;stroke-linejoin:round;stroke-miterlimit:10;" d="
				M-33.182,252.371c11.826-5.525,26.069-5.604,37.956-0.211c11.887,5.394,21.207,16.163,24.837,28.702
				c6.21,21.448-4.605,45.095-21.644,59.527c-17.039,14.432-39.201,21.225-61.06,25.783"/>
			<path style="fill:none;stroke:#D3E3F3;stroke-width:0.75;stroke-linecap:round;stroke-linejoin:round;stroke-miterlimit:10;" d="
				M-34.953,439.045c12.41-19.69,32.948-34.079,55.691-39.019c10.792-2.344,22.329-2.578,32.632,1.398
				c10.303,3.977,19.154,12.651,21.454,23.453c1.855,8.71-0.561,17.674-1.657,26.512c-1.096,8.838-0.435,18.872,6.007,25.021
				c5.427,5.18,13.769,6.23,21.117,4.714c7.348-1.515,14.021-5.223,20.733-8.577c25.801-12.893,54.569-21.208,83.332-19.053
				c28.763,2.155,57.437,15.824,73.579,39.728c7.698,11.4,12.421,25.652,9.145,39.012c-2.779,11.334-11.023,20.735-20.74,27.198
				c-9.717,6.463-20.891,10.336-32.001,13.909"/>
			<path style="fill:none;stroke:#D3E3F3;stroke-width:0.75;stroke-linecap:round;stroke-linejoin:round;stroke-miterlimit:10;" d="
				M786.716,189.185c-29.688-8.656-64.342,4.403-80.934,30.499c-16.592,26.097-13.714,63.018,6.721,86.228
				c7.172,8.146,16.987,17.931,12.696,27.9c-4.032,9.366-16.944,9.775-27.091,8.758c-18.875-1.892-37.942-3.485-56.776-1.219
				c-18.834,2.266-37.621,8.668-51.938,21.114c-18.266,15.88-27.604,40.467-28.15,64.665c-0.547,24.197,7,48.024,18.057,69.555
				c10.196,19.855,23.757,38.474,42.074,51.228c18.318,12.753,41.857,19.08,63.487,13.574"/>
			<path style="fill:none;stroke:#D3E3F3;stroke-width:0.75;stroke-linecap:round;stroke-linejoin:round;stroke-miterlimit:10;" d="
				M370.22,543.42c-25.423-14.595-38.829-47.143-31.589-75.549c7.241-28.406,34.185-50.439,63.431-52.446
				c29.246-2.008,58.698,15.81,71.004,42.416c12.307,26.606,7.009,60.242-12.458,82.16"/>
			<path style="fill:none;stroke:#D3E3F3;stroke-width:0.75;stroke-linecap:round;stroke-linejoin:round;stroke-miterlimit:10;" d="
				M419.841-49.722c-6.996,12.4-8.171,27.929-3.12,41.24c5.051,13.311,16.233,24.151,29.694,28.787
				c18.6,6.406,39.059,1.088,57.617-5.438c18.558-6.526,37.493-14.373,57.111-12.912c14.591,1.087,29.823,8.71,35.012,22.39
				c4.822,12.713-0.008,26.924,0.982,40.485c1.486,20.37,16.869,38.232,35.89,45.674s40.862,5.423,59.739-2.378
				c18.876-7.8,35.092-20.966,49.374-35.567c10.708-10.948,20.686-23.13,25.812-37.561c5.126-14.431,4.716-31.528-4.197-43.981"/>
			<path style="fill:none;stroke:#D3E3F3;stroke-width:0.75;stroke-linecap:round;stroke-linejoin:round;stroke-miterlimit:10;" d="
				M767.814,81.025c-21.683,4.879-41.027,19.336-51.848,38.749c-5.804,10.414-8.857,24.327-1.415,33.64
				c7.503,9.389,21.823,9.398,33.435,6.297c18.405-4.914,35.223-15.605,47.483-30.185"/>
			<path style="fill:none;stroke:#D3E3F3;stroke-width:0.75;stroke-linecap:round;stroke-linejoin:round;stroke-miterlimit:10;" d="
				M654.237-32.676c-4.59,10.321-9.249,20.915-9.979,32.187c-0.729,11.272,3.275,23.548,12.761,29.68
				c10.47,6.768,24.779,4.282,35.32-2.374c15.897-10.039,25.61-29.13,24.364-47.89c-1.245-18.76-13.397-36.4-30.481-44.249"/>
			<path style="fill:none;stroke:#D3E3F3;stroke-width:0.75;stroke-linecap:round;stroke-linejoin:round;stroke-miterlimit:10;" d="
				M336.251-26.575c10.686,18.375,6.341,43.814-9.153,58.367c-15.494,14.553-40.366,17.52-59.353,7.964
				c-18.987-9.556-31.292-30.567-31.446-51.823c-0.153-21.256,11.358-41.989,28.856-54.057"/>
			<path style="fill:none;stroke:#D3E3F3;stroke-width:0.75;stroke-linecap:round;stroke-linejoin:round;stroke-miterlimit:10;" d="
				M54.67,72.475c4.196,3.121,10.598,1.883,14.245-1.865c3.647-3.748,4.858-9.342,4.423-14.553
				c-0.344-4.125-1.802-8.537-5.562-10.755c-2.476-1.461-5.95-2.206-8.643-0.918c-2.469,1.181-3.971,3.73-5.087,6.114
				c-1.569,3.352-3.105,7.206-3.489,10.9C50.137,65.419,51.294,69.964,54.67,72.475z"/>
			<path style="fill:none;stroke:#D3E3F3;stroke-width:0.75;stroke-linecap:round;stroke-linejoin:round;stroke-miterlimit:10;" d="
				M149.051,451.704c3.212-2.099,5.727-5.69,5.467-9.518c-0.381-5.606-6.058-9.118-11.106-9.916
				c-5.438-0.86-11.041,0.84-15.036,4.622c-2.847,2.695-5.068,6.464-5.319,10.443c-0.234,3.72,1.653,6.927,5.157,8.304
				c3.12,1.226,6.422,0.67,9.597-0.021c3.129-0.681,6.314-1.376,9.215-2.776C147.723,452.505,148.402,452.128,149.051,451.704z"/>
			<path style="fill:none;stroke:#D3E3F3;stroke-width:0.75;stroke-linecap:round;stroke-linejoin:round;stroke-miterlimit:10;" d="
				M334.119,438.807c1.631-0.913,3.024-2.277,3.977-3.882c0.845-1.424,1.343-3.037,1.352-4.695c0.02-3.558-2.428-7.079-5.938-7.95
				c-2.521-0.625-5.069,0.251-7.044,1.844c-3.544,2.859-6.493,9.125-3.353,13.274C325.641,440.738,330.737,440.702,334.119,438.807z
				"/>
			<path style="fill:none;stroke:#D3E3F3;stroke-width:0.75;stroke-linecap:round;stroke-linejoin:round;stroke-miterlimit:10;" d="
				M689.16,308.126c3.099-2.623,4.584-7.152,2.786-10.935c-1.719-3.616-5.7-5.124-9.526-4.536
				c-7.208,1.107-11.366,10.944-5.153,16.034C680.654,311.464,685.942,310.85,689.16,308.126z"/>
			<path style="fill:none;stroke:#D3E3F3;stroke-width:0.75;stroke-linecap:round;stroke-linejoin:round;stroke-miterlimit:10;" d="
				M428.198,26.94c3.668-8.101-6.9-18.062-14.418-12.46c-6.202,4.621-3.389,14.572,3.546,16.764
				C421.31,32.503,426.4,30.91,428.198,26.94z"/>
		</g>
	</g>
	<g>
		<g>
			<g>
				<path style="fill:#D3E3F3;" d="M657.08,362.032c-0.541-5.236,2.921-24.574,6.863-25.289c3.942-0.715,14.02,6.855,12.79,9.615
					C675.503,349.117,666.2,359.273,657.08,362.032z"/>
				<path style="fill:#D3E3F3;" d="M651.402,352.263c-3.623-3.819-12.674-21.255-9.987-24.226c2.688-2.971,15.291-3.119,16-0.182
					C658.123,330.792,656.946,344.514,651.402,352.263z"/>
			</g>
			<g>
				
					<path style="fill:none;stroke:#AFC6DE;stroke-width:0.75;stroke-linecap:round;stroke-linejoin:round;stroke-miterlimit:10;" d="
					M649.952,338.996c3.219,15.73,0.831,32.548-6.641,46.759"/>
				
					<path style="fill:none;stroke:#AFC6DE;stroke-width:0.75;stroke-linecap:round;stroke-linejoin:round;stroke-miterlimit:10;" d="
					M650.091,366.247c6.837-2.843,15.105-13.49,17.61-19.879"/>
			</g>
		</g>
		<g>
			<g>
				<path style="fill:#D3E3F3;" d="M710.369,344.721c-2.295-5.833-4.508-29.121-0.215-31.201c4.293-2.08,17.93,4.18,17.402,7.739
					C727.028,324.818,719.947,338.641,710.369,344.721z"/>
				<path style="fill:#D3E3F3;" d="M699.586,341.97c-4.068-3.646-14.897-20.919-12.367-24.218c2.53-3.299,15.554-4.512,16.534-1.534
					C704.734,319.196,704.67,333.489,699.586,341.97z"/>
				<path style="fill:#D3E3F3;" d="M705.87,376.879c2.53-5.734,17.523-23.691,22.022-22.104c4.499,1.587,10.454,15.364,7.554,17.492
					C732.545,374.395,716.93,379.408,705.87,376.879z"/>
			</g>
			<g>
				
					<path style="fill:none;stroke:#AFC6DE;stroke-width:0.75;stroke-linecap:round;stroke-linejoin:round;stroke-miterlimit:10;" d="
					M714.039,328.503c-4.872,32.561-22.71,62.998-48.736,83.161"/>
				
					<path style="fill:none;stroke:#AFC6DE;stroke-width:0.75;stroke-linecap:round;stroke-linejoin:round;stroke-miterlimit:10;" d="
					M706.321,356.914c-5.198-8.217-9.582-21.369-9.206-29.887"/>
				
					<path style="fill:none;stroke:#AFC6DE;stroke-width:0.75;stroke-linecap:round;stroke-linejoin:round;stroke-miterlimit:10;" d="
					M694.383,379.946c8.495-2.063,17.88-4.245,27.195-9.863"/>
			</g>
		</g>
		<g>
			<g>
				<path style="fill:#D3E3F3;" d="M386.597,419.634c0.124-5.857-5.478-26.993-9.915-27.427
					c-4.437-0.434-14.367,9.472-12.752,12.421C365.545,407.577,376.23,417.404,386.597,419.634z"/>
				<path style="fill:#D3E3F3;" d="M395.16,413.73c2.387-4.514,6.288-23.166,3.001-25.239c-3.286-2.073-15.099,1.081-14.994,4.009
					C383.272,395.428,387.957,407.94,395.16,413.73z"/>
				<path style="fill:#D3E3F3;" d="M400.955,446.373c-4.075-4.209-23.036-15.098-26.467-12.25
					c-3.43,2.848-4.191,16.856-0.959,17.783C376.762,452.833,392.077,452.172,400.955,446.373z"/>
			</g>
			<g>
				
					<path style="fill:none;stroke:#AFC6DE;stroke-width:0.75;stroke-linecap:round;stroke-linejoin:round;stroke-miterlimit:10;" d="
					M378.127,406.602c14.816,26.971,40.313,47.883,69.662,57.134"/>
				
					<path style="fill:none;stroke:#AFC6DE;stroke-width:0.75;stroke-linecap:round;stroke-linejoin:round;stroke-miterlimit:10;" d="
					M394.094,429.014c1.897-8.888,1.482-21.84-1.606-29.186"/>
				
					<path style="fill:none;stroke:#AFC6DE;stroke-width:0.75;stroke-linecap:round;stroke-linejoin:round;stroke-miterlimit:10;" d="
					M412.021,445.342c-8.116,0.942-17.052,2.068-27.038,0.159"/>
			</g>
		</g>
		<g>
			<g>
				<path style="fill:#D3E3F3;" d="M452.981,370.948c-3.637-4.24-12.308-23.203-9.302-26.209c3.006-3.007,16.374-2.495,16.97,0.655
					C461.245,348.544,459.27,363.028,452.981,370.948z"/>
				<path style="fill:#D3E3F3;" d="M444.631,380.375c-5.474,1.115-26.26-0.535-27.424-4.624c-1.164-4.089,5.786-15.52,8.828-14.508
					C429.077,362.256,440.77,371.029,444.631,380.375z"/>
			</g>
			<g>
				
					<path style="fill:none;stroke:#AFC6DE;stroke-width:0.75;stroke-linecap:round;stroke-linejoin:round;stroke-miterlimit:10;" d="
					M451.904,354.976c-1.832,17.477,7.585,38.546,23.227,46.686"/>
				
					<path style="fill:none;stroke:#AFC6DE;stroke-width:0.75;stroke-linecap:round;stroke-linejoin:round;stroke-miterlimit:10;" d="
					M457.997,383.848c-8.384,0-23.007-7.005-29.073-12.9"/>
			</g>
		</g>
		<g>
			<path style="fill:#D3E3F3;" d="M398.479,483.06c-4.623,3.103-24.406,9.462-27.03,6.135c-2.623-3.328-0.551-16.498,2.637-16.719
				C377.274,472.255,391.377,475.908,398.479,483.06z"/>
			<path style="fill:none;stroke:#AFC6DE;stroke-width:0.75;stroke-linecap:round;stroke-linejoin:round;stroke-miterlimit:10;" d="
				M409.973,493.204c-6.045-12.885-24.656-13.044-32.291-11.771"/>
		</g>
	</g>
	<g>
		<defs>
			<rect id="SVGID_00000101102605046472295680000002630843045427236282_" width="750" height="500"/>
		</defs>
		<clipPath id="SVGID_00000145037360769753344180000003950326162971633538_">
			<use xlink:href="#SVGID_00000101102605046472295680000002630843045427236282_"  style="overflow:visible;"/>
		</clipPath>
		<g style="clip-path:url(#SVGID_00000145037360769753344180000003950326162971633538_);">
			<g>
				<path style="fill:#AFC6DE;" d="M-13.67,520.289c0,0,22.732-100.567,43.223-97.01c26.251,4.556-35.859,102.133-35.859,102.133
					L-13.67,520.289z"/>
				
					<line style="fill:none;stroke:#80A0C2;stroke-width:0.75;stroke-linecap:round;stroke-linejoin:round;stroke-miterlimit:10;" x1="-9.614" y1="520.075" x2="23.897" y2="440.887"/>
			</g>
			<g>
				<path style="fill:#D3E3F3;" d="M-5.025,518.368c0,0,47.065-89.82,72.358-79.488c25.293,10.332-65.634,86.532-65.634,86.532
					L-5.025,518.368z"/>
				
					<line style="fill:none;stroke:#AFC6DE;stroke-width:0.75;stroke-linecap:round;stroke-linejoin:round;stroke-miterlimit:10;" x1="0.418" y1="520.075" x2="58.262" y2="451.132"/>
			</g>
			<g>
				<path style="fill:#AFC6DE;" d="M757.675,144.674c0,0-53.279-88.271-36.038-99.902c22.087-14.9,44.897,98.495,44.897,98.495
					L757.675,144.674z"/>
				
					<line style="fill:none;stroke:#80A0C2;stroke-width:0.75;stroke-linecap:round;stroke-linejoin:round;stroke-miterlimit:10;" x1="760.452" y1="141.711" x2="729.758" y2="61.389"/>
			</g>
			<g>
				<path style="fill:#D3E3F3;" d="M766.878,165.301c0,0-80.644-61.476-66.213-84.675c14.431-23.2,74.285,79.23,74.285,79.23
					L766.878,165.301z"/>
				
					<line style="fill:none;stroke:#AFC6DE;stroke-width:0.75;stroke-linecap:round;stroke-linejoin:round;stroke-miterlimit:10;" x1="769.475" y1="160.222" x2="711.221" y2="91.626"/>
			</g>
		</g>
	</g>
	<g>
		<g>
			<path style="fill:#EAF3FC;" d="M10.411,245.484H73.52c0,0-7.691-8.973-16.183-9.454c-8.492-0.481-8.011,5.608-14.901,5.448
				c-6.89-0.16-6.73-13.459-18.426-12.338C12.312,230.262,10.411,245.484,10.411,245.484z"/>
			<path style="fill:#EAF3FC;" d="M346.794,185.14h72.745c0,0-10.748-9.009-17.606-8.747c-6.858,0.262-8.82,4.079-13.923,4.525
				c-5.103,0.447-10.201-10.626-22.767-10.806C356.084,169.982,346.794,185.14,346.794,185.14z"/>
			<path style="fill:#EAF3FC;" d="M220.178,436.492h85.751c0,0-6.638-7.309-13.498-6.867c-6.86,0.443-6.86,2.991-11.396,3.1
				c-4.536,0.109-10.511-11.619-21.354-11.176c-10.843,0.443-12.501,11.067-17.37,11.176c-4.869,0.109-10.18-3.542-14.384-2.878
				C223.722,430.51,220.178,436.492,220.178,436.492z"/>
		</g>
		<g>
			<path style="fill:#EAF3FC;" d="M373.435,326.184c-4.798-4.041-9.681,3.62-9.681,3.62s-4.882-7.66-9.681-3.62
				c-5.863,4.937,9.681,15.875,9.681,15.875S379.297,331.121,373.435,326.184z"/>
			<path style="fill:#EAF3FC;" d="M128.435,96.825c-3.931-3.311-7.932,2.966-7.932,2.966s-4-6.276-7.932-2.966
				c-4.803,4.045,7.932,13.007,7.932,13.007S133.238,100.869,128.435,96.825z"/>
			<path style="fill:#EAF3FC;" d="M75.204,350.164c-2.946-2.481-5.943,2.222-5.943,2.222s-2.997-4.703-5.943-2.222
				c-3.599,3.031,5.943,9.746,5.943,9.746S78.803,353.195,75.204,350.164z"/>
			<path style="fill:#EAF3FC;" d="M692.784,165.593c-2.946-2.481-5.943,2.222-5.943,2.222s-2.997-4.703-5.943-2.222
				c-3.599,3.031,5.943,9.746,5.943,9.746S696.383,168.624,692.784,165.593z"/>
			<polygon style="fill:#EAF3FC;" points="683.464,213.923 673.313,213.923 673.313,203.771 664.365,203.771 664.365,213.923 
				654.213,213.923 654.213,222.871 664.365,222.871 664.365,233.022 673.313,233.022 673.313,222.871 683.464,222.871 			"/>
			<polygon style="fill:#EAF3FC;" points="378.38,56.591 368.228,56.591 368.228,46.44 359.28,46.44 359.28,56.591 349.129,56.591 
				349.129,65.539 359.28,65.539 359.28,75.691 368.228,75.691 368.228,65.539 378.38,65.539 			"/>
			<circle style="fill:#EAF3FC;" cx="18.783" cy="139.99" r="7.043"/>
			<circle style="fill:#EAF3FC;" cx="215.348" cy="27.115" r="5.217"/>
			<circle style="fill:#EAF3FC;" cx="676.836" cy="61.065" r="5.217"/>
			<path style="fill:#EAF3FC;" d="M208.389,477.715c0,4.034-3.27,7.304-7.304,7.304c-4.034,0-7.304-3.27-7.304-7.304
				c0-4.034,3.27-7.304,7.304-7.304C205.119,470.411,208.389,473.681,208.389,477.715z"/>
		</g>
	</g>
	<g>
		<g>
			<g>
				<path style="fill:#D5693C;" d="M612.687,362.39c-29.76,50.67-102.82,44.22-107.72,10.68c1.66-6.19,5.23-37.34-12.38-54.14
					l14.76-47.02l36.42-21.19l30.64,5.59C571.377,267.86,586.782,320.478,612.687,362.39z"/>
				<path style="fill:#B14314;" d="M539.313,289.304c-4.858,7.691-22.19,25.351-41.273,36.215c-1.649-2.658-3.119-4.364-5.457-6.591
					c19.686-12.538,43.261-33.332,45.254-35.977c2.977-3.974,4.368-18.296,4.762-22.664
					C545.428,270.672,543.847,282.126,539.313,289.304z"/>
			</g>
			<g>
				<path style="fill:#00BCAD;" d="M504.966,373.073c-22.848,2.289-63.276,22.306-70.658,34.301
					C426.927,419.369,398.834,500,398.834,500H750c0,0-23.885-87.503-39.917-99.392c-15.685-11.632-67.528-33.825-97.392-38.222
					C582.93,413.064,509.863,406.605,504.966,373.073z"/>
				<g>
					<g>
						<path style="fill:#19D1C2;" d="M697.598,393.01c-7.06,12.47-14.69,24.86-24.81,34.99c-17.36,17.38-41.86,26.78-66.29,26.78
							c-11.85,0.01-23.68-2.21-34.69-6.8c-3.52-1.47-7.04-3.19-10.44-4.86c-8.16-4-16.59-8.14-25.66-8.99
							c-7.72-0.73-15.51,0.96-23.04,2.6c-4.58,1-9.31,2.03-14.03,2.53c-16.98,1.77-34.9-3.75-47.93-14.77
							c-6.17-5.21-11.29-11.71-15.1-18.91c0.21-0.27,0.45-0.54,0.7-0.81c3.77,7.23,8.88,13.74,15.05,18.95
							c12.83,10.86,30.46,16.29,47.18,14.54c4.66-0.49,9.37-1.51,13.92-2.5c7.6-1.66,15.46-3.37,23.34-2.63
							c9.25,0.88,17.78,5.05,26.01,9.09c3.39,1.66,6.89,3.38,10.39,4.84c33.31,13.9,74.38,5.77,99.88-19.77
							c10.03-10.03,17.61-22.35,24.63-34.74C697.007,392.7,697.308,392.86,697.598,393.01z"/>
					</g>
					<g>
						<path style="fill:#19D1C2;" d="M736.647,456.49c-3.87,3.88-8.04,7.46-12.49,10.7c-18.81,13.69-42,20.87-65.23,20.22
							c-14.53-0.41-28.93-3.84-42.85-7.16c-11.78-2.82-23.95-5.72-36.16-6.78c-31.35-2.72-63.25,7.08-87.85,26.53h-1.6
							c24.93-20.13,57.52-30.31,89.54-27.53c12.28,1.07,24.49,3.98,36.3,6.8c13.87,3.31,28.22,6.74,42.65,7.14
							c23.05,0.66,45.98-6.47,64.61-20.03c4.54-3.3,8.79-6.97,12.72-10.95C736.407,455.79,736.528,456.14,736.647,456.49z"/>
					</g>
					<g>
						<path style="fill:#19D1C2;" d="M467.887,500h-1.08c4.09-9.82,4.85-20.15,1.73-29.07c-4.54-12.95-17.55-23.53-33.97-27.63
							c-4.75-1.19-9.57-1.86-14.41-2.18c0.12-0.33,0.25-0.66,0.37-0.99c4.8,0.34,9.57,1.02,14.28,2.2
							c16.74,4.18,30.03,15.01,34.67,28.27C472.647,479.64,471.937,490.08,467.887,500z"/>
					</g>
					<g>
						<path style="fill:#19D1C2;" d="M535.308,398.19c0.42,0.08,0.85,0.16,1.27,0.23c-8.7,7.6-18.52,15.68-30.15,15.68h-0.27
							c-12.45-0.14-24.43-10.76-27.87-24.72c-0.68-2.77-1.08-5.66-1.18-8.66c0.33-0.13,0.65-0.26,0.97-0.38
							c0.09,3.05,0.49,5.99,1.18,8.8c2.84,11.5,13.23,23.81,26.91,23.96C517.357,413.2,526.517,405.86,535.308,398.19z"/>
						<path style="fill:#19D1C2;" d="M671.118,380.61c-0.31,1.14-0.66,2.26-1.04,3.36c-4.99,14.56-15.04,26.11-27.59,31.68
							c-5.37,2.39-11.14,3.55-16.8,3.55c-8.9,0-17.56-2.87-24.05-8.37c-3.92-3.32-7.17-7.58-10.31-11.7
							c-2.43-3.18-4.8-6.29-7.42-8.94c0.3-0.16,0.6-0.32,0.9-0.49c2.64,2.7,5,5.79,7.31,8.82c3.11,4.08,6.33,8.29,10.16,11.54
							c10.35,8.77,26.35,10.65,39.8,4.68c12.3-5.46,22.16-16.79,27.05-31.09c0.39-1.13,0.74-2.27,1.06-3.44
							C670.497,380.34,670.808,380.47,671.118,380.61z"/>
					</g>
				</g>
				<g>
					<path style="fill:none;stroke:#008C81;stroke-linecap:round;stroke-linejoin:round;stroke-miterlimit:10;" d="M665.412,461.609
						c0,19.304,3.13,37.391,3.13,37.391"/>
					<path style="fill:none;stroke:#008C81;stroke-linecap:round;stroke-linejoin:round;stroke-miterlimit:10;" d="M452.834,458.217
						c3.913,12.783-5.705,32.478-7.027,40.783"/>
				</g>
			</g>
		</g>
		<g>
			<g>
				<path style="fill:#09254D;" d="M439.049,168.624c-3.031,8.626-17.018,19.816-17.485,33.803
					c-0.466,13.988,10.724,34.503-4.43,37.767c9.558-1.166,12.589-6.25,13.288-11.984c0.699-5.734-8.516-22.985,11.479-38.605
					l18.752-31.472l-10.487-12.589L439.049,168.624z"/>
				<path style="fill:#D5693C;" d="M599.647,195.684c-0.99,11.33-23.049,47.701-25.242,60.623l-31.797,3.985
					c-0.401,4.362-1.792,18.675-4.775,22.66c-2.983,3.973-54.669,48.892-68.781,45.32c-14.112-3.584-13.711-21.469-15.503-25.242
					c-1.792-3.784-7.557-4.185-7.557-4.185l-10.08-20.231l5.518-12.568c-4.574,0.802-18.298-1.58-10.34-13.712
					c7.946-12.12,17.885-17.095,15.704-31.997c-0.743-5.058-7.156-11.33-7.557-15.704c-0.401-4.374-0.2-35.192,13.912-49.305
					c4.126-4.126,11.2-9.573,20.125-14.914h107.958C597.855,159.667,600.378,187.479,599.647,195.684z"/>
				<g>
					<path style="fill:#B14314;" d="M460.653,284.758c-1.13,3.134-12.626,14.12-14.518,15.139c-2.328-0.218-8.02-2.795-6.047-10.019
						L460.653,284.758z"/>
					<path style="fill:#B14314;" d="M460.653,284.758c-4.181,3.243-18.858,5.547-20.565,5.12c-1.707-0.427-8.362-8.192-4.693-12.373
						C443.843,277.078,450.584,284.673,460.653,284.758z"/>
				</g>
				<path style="fill:none;stroke:#B14314;stroke-width:1.5;stroke-linecap:round;stroke-linejoin:round;stroke-miterlimit:10;" d="
					M441.902,265.792c1.379-1.38,2.452-2.146,3.219-1.839c0.766,0.306,3.525,3.985,6.361,1.839
					c2.836-2.146,0.153-9.887-4.368-11.419"/>
				<g>
					<path style="fill:#C65A2C;" d="M485.363,218.82c-4.147-8.686-18.389-12.598-25.353-11.816
						c-2.66,6.182-0.939,18.311,1.721,21.206C466.426,228.132,480.042,223.907,485.363,218.82z"/>
					<path style="fill:#2C2F37;" d="M485.363,218.82c-1.124,2.361-19.176,12.432-25.361,13.434c0.919-0.752,2.883-1.797,3.385-2.507
						c-1.17,0.167-6.979-0.251-8.399-2.131C461.089,227.658,478.713,223.648,485.363,218.82z"/>
				</g>
				<g>
					<path style="fill:#09254D;" d="M450.55,191.762c-2.11,1.912-0.588,14.115,2.744,13.33c3.333-0.784,14.18-9.475,20.649-8.756
						c6.469,0.719,13.799,4.66,15.487,2.875c3.202-3.386-9.344-13.135-18.493-12.677
						C465.241,186.819,452.641,189.867,450.55,191.762z"/>
				</g>
				
					<ellipse transform="matrix(0.9879 -0.1551 0.1551 0.9879 -33.1762 79.8037)" style="fill:#E0784D;" cx="494.791" cy="252.494" rx="13.662" ry="8.669"/>
			</g>
			<g>
				<path style="fill:#09254D;" d="M644.672,299.893c-3.006,3.266-6.154,6.249-9.408,8.96
					c-12.202-6.402-22.318-16.753-28.366-29.156c3.667,13.24,11.66,25.242,22.424,33.754
					c-22.058,15.751-47.843,20.667-67.814,20.691c3.832-8.842,4.846-18.899,2.771-28.319c-1.745,10.54-7.133,20.42-14.973,27.682
					c-5.329-0.578-9.868-1.521-13.334-2.629c32.339-16.553,14.041-48.255,13.346-58.041c-0.696-9.797,4.433-16.093,4.669-29.84
					c0.224-13.759-6.06-18.286-6.06-18.286c-4.904,14.348-14.454,26.444-21.221,29.663c16.553-16.128-5.824-51.474,0-60.799
					c-3.03,3.03-14.454,7.687-26.515,1.108c-12.061-6.59,1.108-33.046-7.286-38.411c-8.394-5.364-29.84,17.248-36.135,17.944
					c-6.296,0.707-11.271-7.097-6.602-15.374l-11.118,9.785c1.403-6.06-4.893-20.75,0-28.213h167.85l4.704,4.48
					c16.682,19.877,15.02,66.871,13.947,83.318c-1.167,17.85,10.021,31.101,20.75,33.66l-3.961,13.523
					c-25.878-3.266-26.114-43.127-23.544-56.414C596.405,271.433,629.982,294.282,644.672,299.893z"/>
				<g>
					<path style="fill:#1A3B6B;" d="M574.995,319.076c0.283-6.619-0.984-13.214-2.387-19.698c-1.415-6.484-2.965-12.981-3.285-19.6
						c-0.517-10.926,2.473-22,8.428-31.178c-5.807,17.262-5.586,36.801,0.382,54.002c2.042,5.918,4.762,11.59,6.62,17.57
						c1.132,3.679,1.944,7.555,2.03,11.393c-5.426,1.12-10.741,1.833-15.799,2.215C573.555,329.387,574.773,324.194,574.995,319.076
						z"/>
					<path style="fill:#1A3B6B;" d="M618.465,320.208c-5.857,3.162-11.837,5.684-17.816,7.665
						c-0.443-5.377-2.141-10.704-4.171-15.737c-3.027-7.493-6.804-14.765-8.428-22.676c-1.981-9.585-0.677-19.526,1.415-29.074
						c2.092-9.56,4.971-18.96,6.201-28.656c1.23-9.696,0.972-19.699-3.482-28.398c6.952,12.489,9.868,27.204,8.182,41.403
						c-1.108,9.4-4.147,18.456-5.598,27.807c-1.452,9.339-1.132,19.477,3.913,27.475c3.765,5.943,9.732,10.077,14.888,14.863
						C615.315,316.492,617,318.276,618.465,320.208z"/>
					<path style="fill:#1A3B6B;" d="M598.426,153.054c-10.368,10.226-31.387,29.257-66.183,13.208
						C546.872,180.606,586.212,190.974,598.426,153.054z"/>
				</g>
			</g>
			<g>
				<path style="fill:#D5693C;" d="M536.027,246.257c-0.615-6.88-1.194-15.846,1.469-21.549
					c2.662-5.704,13.428-23.271,24.772-21.375c11.344,1.896,10.215,24.845,9.492,30.025c-1.273,9.121-7.273,20.468-20.317,25.034
					c-7.994,2.798-12.888-3.734-13.534-5.47C537.264,251.185,536.027,246.257,536.027,246.257z"/>
				<g>
					
						<path style="fill:none;stroke:#B14314;stroke-width:1.5;stroke-linecap:round;stroke-linejoin:round;stroke-miterlimit:10;" d="
						M562.139,212.478c-7.696-0.913-26.631,19.489-13.957,40.565"/>
					
						<path style="fill:none;stroke:#B14314;stroke-width:1.5;stroke-linecap:round;stroke-linejoin:round;stroke-miterlimit:10;" d="
						M544.041,235.829c3.489-5.308,10.125-7.619,14.445-6.003"/>
				</g>
			</g>
			<g>
				<line style="fill:#EAF3FC;" x1="553.033" y1="254.478" x2="553.033" y2="277.487"/>
				<circle style="fill:#EAF3FC;" cx="553.033" cy="254.478" r="2.27"/>
				<path style="fill:#EAF3FC;" d="M557.545,277.487c0,2.492-2.02,4.513-4.513,4.513c-2.492,0-4.513-2.02-4.513-4.513
					c0-2.492,2.02-4.512,4.513-4.512C555.525,272.975,557.545,274.995,557.545,277.487z"/>
				<path style="fill:#EAF3FC;" d="M559.045,286.513c0,3.321-2.692,6.012-6.013,6.012c-3.321,0-6.013-2.692-6.013-6.012
					c0-3.321,2.692-6.013,6.013-6.013C556.353,280.5,559.045,283.192,559.045,286.513z"/>
			</g>
		</g>
		<path style="fill:#1A3B6B;" d="M439.049,140.415c12.143,6.359,144.169,8.189,167.85,0
			C576.342,133.962,452.647,136.416,439.049,140.415z"/>
		<g>
			<g>
				<g>
					<g>
						<path style="fill:#AC74E8;" d="M472.927,144.59c-11.35-0.61-20.82-1.43-27-2.43c-5.23-3.96-9.95-8.57-13.97-13.88
							c-10.52-13.86-15.83-30.85-16.32-48.25c7.81,2.53,15.24,6.21,21.99,10.86c0.58,0.39,1.15,0.8,1.72,1.21
							c6.34,4.58,12.05,10.03,16.89,16.17c0.23,0.28,0.45,0.56,0.67,0.85c0.21,0.28,0.43,0.56,0.63,0.84
							C465.177,120.15,470.457,132.1,472.927,144.59z"/>
					</g>
				</g>
				<g>
					<g>
						<path style="fill:#864AC4;" d="M424.277,90.37l40.2,53.7c-0.45-0.03-0.89-0.06-1.32-0.1l-39.69-53
							c-0.16-0.22-0.12-0.53,0.11-0.7C423.787,90.11,424.107,90.15,424.277,90.37z"/>
					</g>
					<g>
						<path style="fill:#864AC4;" d="M434.189,104.8c-0.032,0-0.065-0.003-0.098-0.009c-0.271-0.054-0.447-0.316-0.394-0.587
							c0.864-4.382,0.142-9.149-1.982-13.079c-0.132-0.243-0.041-0.546,0.202-0.678c0.239-0.131,0.546-0.042,0.677,0.202
							c2.233,4.131,2.992,9.142,2.084,13.748C434.631,104.635,434.422,104.8,434.189,104.8z"/>
					</g>
					<g>
						<path style="fill:#864AC4;" d="M438.367,115.926c-4.327,0-8.646-1.063-12.471-3.108c-0.244-0.13-0.336-0.433-0.206-0.677
							c0.132-0.245,0.435-0.334,0.677-0.205c4.803,2.566,10.41,3.526,15.797,2.703c0.273-0.04,0.527,0.146,0.569,0.418
							c0.042,0.273-0.146,0.528-0.419,0.57C441.006,115.827,439.686,115.926,438.367,115.926z"/>
					</g>
					<g>
						<path style="fill:#864AC4;" d="M451.619,128.255c-0.038,0-0.077-0.004-0.116-0.014c-0.269-0.064-0.435-0.334-0.37-0.602
							c1.605-6.73,1.587-13.841-0.055-20.563c-0.065-0.268,0.099-0.539,0.367-0.604c0.265-0.064,0.538,0.1,0.603,0.367
							c1.68,6.875,1.699,14.148,0.057,21.033C452.05,128.101,451.845,128.255,451.619,128.255z"/>
					</g>
					<g>
						<path style="fill:#864AC4;" d="M456.125,139.74c-4.952,0-9.932-1.149-14.349-3.348c-0.247-0.123-0.348-0.423-0.225-0.67
							c0.123-0.248,0.425-0.348,0.67-0.225c5.405,2.69,11.684,3.758,17.675,3.01c0.273-0.031,0.524,0.159,0.559,0.434
							c0.034,0.274-0.16,0.524-0.434,0.558C458.732,139.66,457.43,139.74,456.125,139.74z"/>
					</g>
					<g>
						<path style="fill:#864AC4;" d="M467.477,144.28c0.04-2.71-0.3-5.44-0.99-8.04c-0.07-0.27,0.09-0.54,0.36-0.61
							c0.27-0.07,0.54,0.09,0.61,0.35c0.71,2.71,1.06,5.55,1.02,8.36C468.137,144.32,467.808,144.3,467.477,144.28z"/>
					</g>
				</g>
			</g>
			<g>
				<g>
					<g>
						<path style="fill:#00BCAD;" d="M551.318,145.59c-7.61,0.18-15.53,0.28-23.49,0.3c-0.57-36.72,20.03-81.01,53.87-108.21
							C587.078,81.31,578.287,122.35,551.318,145.59z"/>
					</g>
				</g>
				<g>
					<g>
						<path style="fill:#008C81;" d="M575.967,52.26c-9.83,32.07-22.39,63.5-37.4,93.55c-0.37,0.01-0.74,0.01-1.12,0.02
							c15.07-30.14,27.7-61.68,37.57-93.87c0.08-0.26,0.36-0.41,0.62-0.33C575.907,51.71,576.047,51.99,575.967,52.26z"/>
					</g>
					<g>
						<path style="fill:#008C81;" d="M563.605,87.23c-0.067,0-0.135-0.014-0.197-0.041c-0.128-0.055-0.227-0.16-0.273-0.291
							c-2.279-6.371-3.079-13.29-2.315-20.011c0.032-0.275,0.28-0.477,0.554-0.44c0.274,0.031,0.472,0.279,0.44,0.553
							c-0.727,6.39-0.007,12.964,2.084,19.049c6.206-2.85,11.358-7.339,14.547-12.685c0.142-0.239,0.449-0.316,0.685-0.173
							c0.237,0.141,0.315,0.448,0.174,0.685c-3.378,5.664-8.881,10.391-15.496,13.311C563.743,87.216,563.673,87.23,563.605,87.23z"
							/>
					</g>
					<g>
						<path style="fill:#008C81;" d="M551.523,116.955c-0.187,0-0.36-0.104-0.447-0.276c-3.73-7.438-5.909-15.763-6.3-24.074
							c-0.014-0.276,0.199-0.51,0.476-0.523c0.281-0.017,0.511,0.2,0.522,0.476c0.379,8.042,2.46,16.097,6.021,23.322
							c7.46-1.741,14.807-5.254,20.729-9.919c0.216-0.171,0.53-0.134,0.702,0.083c0.171,0.217,0.134,0.531-0.083,0.702
							c-6.138,4.835-13.777,8.456-21.511,10.197C551.596,116.951,551.559,116.955,551.523,116.955z"/>
					</g>
					<g>
						<path style="fill:#008C81;" d="M541.063,140.625c-0.183,0-0.352-0.1-0.44-0.264c-3.581-6.67-5.435-14.198-5.36-21.769
							c0.003-0.276,0.229-0.522,0.505-0.495c0.276,0.003,0.498,0.229,0.495,0.505c-0.071,7.284,1.683,14.528,5.075,20.973
							c5.65-0.926,11.104-3.107,15.794-6.32c0.227-0.155,0.539-0.097,0.694,0.13c0.156,0.228,0.099,0.539-0.13,0.695
							c-4.909,3.363-10.635,5.625-16.557,6.539C541.114,140.623,541.088,140.625,541.063,140.625z"/>
					</g>
				</g>
			</g>
			<g>
				<g>
					<g>
						<path style="fill:#00BCAD;" d="M510.318,145.79c-5.94-0.08-11.79-0.21-17.43-0.37c-5.09-5.11-9.43-10.36-13.1-15.69
							c-0.48-0.69-0.94-1.38-1.39-2.06c-2.05-3.12-3.89-6.26-5.51-9.42c-0.39-0.72-0.76-1.45-1.11-2.18
							c-13.48-27.49-12.6-55.81-11.66-77.59c19.93,12.6,34.21,31.44,42.26,53.6C508.808,109.8,510.578,127.4,510.318,145.79z"/>
					</g>
				</g>
				<g>
					<g>
						<path style="fill:#008C81;" d="M505.357,145.71c-0.36-0.01-0.73-0.01-1.09-0.02l-36.15-89.38c-0.1-0.25,0.02-0.54,0.28-0.65
							c0.25-0.1,0.54,0.02,0.65,0.28L505.357,145.71z"/>
					</g>
					<g>
						<path style="fill:#008C81;" d="M476.292,75.663c-0.042,0-0.084-0.005-0.126-0.016c-0.267-0.07-0.428-0.343-0.357-0.61
							l3.553-13.598c0.069-0.267,0.343-0.427,0.609-0.357c0.268,0.07,0.428,0.343,0.358,0.61l-3.553,13.598
							C476.717,75.514,476.515,75.663,476.292,75.663z"/>
					</g>
					<g>
						<path style="fill:#008C81;" d="M484.237,95.424c-0.045,0-0.092-0.006-0.138-0.02l-17.775-5.087
							c-0.266-0.076-0.419-0.353-0.343-0.618c0.075-0.265,0.35-0.421,0.618-0.343l17.775,5.087c0.266,0.076,0.419,0.353,0.343,0.618
							C484.655,95.281,484.454,95.424,484.237,95.424z"/>
					</g>
					<g>
						<path style="fill:#008C81;" d="M494.117,119.489c-0.047,0-0.095-0.006-0.142-0.021c-0.266-0.079-0.416-0.357-0.338-0.622
							l6.262-21.144c0.079-0.265,0.36-0.415,0.621-0.337c0.266,0.079,0.416,0.357,0.338,0.622l-6.262,21.144
							C494.532,119.349,494.332,119.489,494.117,119.489z"/>
					</g>
					<g>
						<path style="fill:#008C81;" d="M502.726,140.815c-0.071,0-0.143-0.015-0.211-0.047l-15.946-7.42
							c-0.25-0.116-0.359-0.413-0.242-0.664c0.117-0.251,0.413-0.359,0.664-0.242l15.946,7.42c0.25,0.116,0.358,0.414,0.242,0.664
							C503.094,140.708,502.914,140.815,502.726,140.815z"/>
					</g>
				</g>
			</g>
			<g>
				<g>
					<g>
						<path style="fill:#4582EF;" d="M527.218,48.588c-3.121-9.694,8.583-39.947,18.403-36.674
							C555.44,15.188,533.909,39.635,527.218,48.588z"/>
					</g>
					<g>
						<path style="fill:#4582EF;" d="M521.522,72.8c11.7-3.554,29.256-24.165,25.685-28.441S525.792,56.318,521.522,72.8z"/>
					</g>
					<g>
						<path style="fill:#4582EF;" d="M518.723,96.324c10.928-3.272,29.08-20.928,26.402-26.582
							C542.447,64.088,520.888,83.626,518.723,96.324z"/>
					</g>
					<g>
						<path style="fill:#4582EF;" d="M518.524,120.225c9.441-1.087,28.386-19.735,25.113-25.885
							C540.364,88.191,521.779,110.402,518.524,120.225z"/>
					</g>
					<g>
						<path style="fill:#4582EF;" d="M520.702,142.153c10.238-3.872,26.505-20.734,24.026-26.983
							C542.248,108.922,525.839,126.187,520.702,142.153z"/>
					</g>
					<g>
						<path style="fill:#4582EF;" d="M521.522,72.8c-5.857-5.439-15.577-34.204-8.535-36.485
							C520.03,34.034,522.122,62.071,521.522,72.8z"/>
					</g>
					<g>
						<path style="fill:#4582EF;" d="M518.723,96.324c-10.298-4.066-22.201-23.408-16.349-29.359
							C508.226,61.013,518.011,89.181,518.723,96.324z"/>
					</g>
					<g>
						<path style="fill:#4582EF;" d="M518.524,120.225c-7.718-0.195-27.16-16.66-22.398-22.909S516.621,110.501,518.524,120.225z"/>
					</g>
					<g>
						<path style="fill:#4582EF;" d="M520.702,142.153c-10.393-0.896-26.164-10.517-25.867-16.667
							C495.133,119.337,515.92,129.46,520.702,142.153z"/>
					</g>
				</g>
				<g>
					<g>
						<g>
							<path style="fill:#225DC7;" d="M535.138,27.81c-15.38,36.89-20.06,78.65-13.32,118.07h-1.02
								c-6.73-39.55-2-81.45,13.42-118.46c0.11-0.25,0.4-0.37,0.65-0.27C535.127,27.26,535.247,27.55,535.138,27.81z"/>
						</g>
					</g>
					<g>
						<path style="fill:#225DC7;" d="M520.703,142.653c-0.095,0-0.19-0.027-0.273-0.082l-11.98-7.839
							c-0.231-0.151-0.296-0.461-0.145-0.692c0.151-0.233,0.463-0.294,0.691-0.145l11.624,7.606l9.355-10.301
							c0.187-0.205,0.503-0.219,0.706-0.034c0.205,0.186,0.22,0.502,0.034,0.706l-9.643,10.617
							C520.975,142.597,520.839,142.653,520.703,142.653z"/>
					</g>
					<g>
						<path style="fill:#225DC7;" d="M518.524,120.726c-0.002,0-0.005,0-0.007,0c-0.136-0.002-0.265-0.059-0.358-0.158
							l-12.083-12.891c-0.189-0.201-0.178-0.518,0.023-0.707c0.202-0.188,0.518-0.178,0.707,0.023l11.727,12.512l12.379-12.522
							c0.193-0.196,0.51-0.199,0.707-0.004c0.196,0.194,0.198,0.511,0.004,0.707l-12.744,12.891
							C518.786,120.672,518.658,120.726,518.524,120.726z"/>
					</g>
					<g>
						<path style="fill:#225DC7;" d="M518.723,96.824c-0.018,0-0.035-0.001-0.053-0.003c-0.149-0.016-0.281-0.097-0.364-0.221
							l-10.001-15.089c-0.152-0.23-0.09-0.54,0.141-0.693c0.228-0.151,0.539-0.091,0.693,0.141l9.667,14.586l13.686-13.37
							c0.199-0.193,0.516-0.188,0.707,0.008c0.193,0.198,0.19,0.514-0.008,0.708l-14.119,13.792
							C518.979,96.773,518.853,96.824,518.723,96.824z"/>
					</g>
					<g>
						<path style="fill:#225DC7;" d="M521.523,73.3c-0.038,0-0.076-0.004-0.113-0.013c-0.178-0.041-0.318-0.175-0.368-0.351
							l-4.469-15.754c-0.075-0.266,0.079-0.542,0.345-0.617c0.269-0.077,0.542,0.079,0.618,0.345l4.222,14.885l12.552-13.896
							c0.186-0.205,0.502-0.22,0.706-0.036c0.205,0.185,0.221,0.501,0.036,0.706l-13.157,14.567
							C521.798,73.242,521.662,73.3,521.523,73.3z"/>
					</g>
				</g>
			</g>
			<g>
				<g>
					<g>
						<path style="fill:#4582EF;" d="M433.181,72.333c-3.931-3.833-6.026-9.472-5.552-14.942c0.492-5.68,3.548-10.817,7.024-15.335
							c4.971,6.629,5.728,16.278,2.331,23.834C435.849,68.416,434.745,70.05,433.181,72.333z"/>
					</g>
					<g>
						<path style="fill:#4582EF;" d="M436.902,88.11c-0.938-3.25-0.479-6.878,1.239-9.792c1.231-2.088,3.04-3.771,4.428-5.757
							c1.388-1.986,2.358-4.525,1.587-6.822c2.223,2.508,3.327,6.352,2.854,9.67c-0.473,3.318-2.463,6.389-5.298,8.176
							c-0.982,0.619-2.064,1.096-2.938,1.86C437.9,86.209,436.653,86.976,436.902,88.11z"/>
					</g>
					<g>
						<path style="fill:#4582EF;" d="M443.712,99.398c-1.212-2.652-1.082-5.877,0.339-8.422c1.319-2.364,3.578-4.024,5.472-5.959
							c1.894-1.934,3.538-4.513,3.084-7.183c1.518,3.033,2.044,6.629,1.158,9.903c-0.886,3.274-3.011,6.196-5.853,8.049
							c-0.879,0.573-1.825,1.049-2.644,1.705C444.449,98.147,443.871,98.36,443.712,99.398z"/>
					</g>
					<g>
						<path style="fill:#4582EF;" d="M457.581,109.327c-1.671-1.821-2.413-4.454-1.939-6.879c0.357-1.829,1.344-3.47,2.401-5.005
							c1.057-1.535,2.211-3.024,2.975-4.724c0.764-1.7,1.109-3.681,0.473-5.433c3.345,4.252,4.009,10.518,1.593,15.358
							C461.821,105.176,459.527,107.272,457.581,109.327z"/>
					</g>
					<g>
						<path style="fill:#4582EF;" d="M469.114,114.544c-1.386-3.748-0.782-8.169,1.558-11.408c1.083-1.499,2.494-2.736,3.586-4.229
							c1.091-1.493,1.862-3.393,1.388-5.18c2.176,3.985,2.676,8.884,1.494,13.267c-0.434,1.609-1.146,3.225-2.456,4.254
							c-0.836,0.657-1.854,1.027-2.806,1.499C470.924,113.219,469.576,113.587,469.114,114.544z"/>
					</g>
					<g>
						<path style="fill:#4582EF;" d="M477.863,123.216c-0.984-2.262-0.162-4.95,1.267-6.96c1.429-2.01,3.402-3.559,5.081-5.367
							c1.678-1.807,3.122-4.061,3.076-6.527c1.021,2.545,1.624,5.442,1.308,8.166c-0.316,2.724-1.534,5.387-3.601,7.19
							C482.933,121.513,480.482,122.437,477.863,123.216z"/>
					</g>
					<g>
						<path style="fill:#4582EF;" d="M479.862,137.061c0.188-2.155,1.872-3.887,3.684-5.068c1.813-1.181,3.86-2.021,5.491-3.442
							c1.907-1.66,3.13-4.083,3.335-6.602c0.396,2.246,0.721,4.629,0.549,6.903s-0.976,4.585-2.651,6.134
							c-1.318,1.219-3.075,1.877-4.848,2.158C483.65,137.423,481.656,137.132,479.862,137.061z"/>
					</g>
					<g>
						<path style="fill:#4582EF;" d="M436.732,87.918c-1.954-4.941-6.936-8.534-12.241-8.83c-1.806-0.101-3.614,0.149-5.422,0.114
							c-1.808-0.035-3.696-0.395-5.097-1.539c0.865,3.076,2.97,5.742,5.604,7.552s5.911,2.663,9.093,2.368
							c1.53-0.142,3.036-0.539,4.573-0.568C434.779,86.987,435.743,86.741,436.732,87.918z"/>
					</g>
					<g>
						<path style="fill:#4582EF;" d="M443.159,99.256c-3.042-2.606-7.218-3.841-11.188-3.308c-1.761,0.236-3.464,0.799-5.223,1.05
							c-1.759,0.25-3.662,0.153-5.147-0.823c1.846,3.749,5.572,6.573,9.699,7.225C435.427,104.052,440.247,102.252,443.159,99.256z"
							/>
					</g>
					<g>
						<path style="fill:#4582EF;" d="M456.918,109.799c-2.009-1.447-4.602-1.894-7.073-1.729c-2.471,0.165-4.865,0.892-7.236,1.606
							s-4.772,1.426-7.244,1.56c3.04,2.562,7.036,3.76,11.005,3.524C450.338,114.524,454.203,112.702,456.918,109.799z"/>
					</g>
					<g>
						<path style="fill:#4582EF;" d="M468.248,114.709c-3.913-1.229-8.304-0.855-11.953,1.018c-2.918,1.497-5.557,3.96-8.834,4.078
							c3.219,2.4,7.523,3.306,11.418,2.327C462.773,121.151,466.548,118.346,468.248,114.709z"/>
					</g>
					<g>
						<path style="fill:#4582EF;" d="M477.41,123.717c-3.417-2.281-7.947-2.796-11.789-1.341c-2.819,1.068-5.289,3.122-8.272,3.558
							c2.879,2.214,6.67,3.076,10.28,2.68C471.239,128.217,475.08,126.503,477.41,123.717z"/>
					</g>
					<g>
						<path style="fill:#4582EF;" d="M479.846,136.862c-1.539-1.985-3.72-3.464-6.134-4.159c-2.85-0.821-5.886-0.554-8.839-0.281
							c-2.07,0.191-4.14,0.383-6.211,0.574c2.101,3.286,5.732,5.35,9.558,6.111C472.045,139.869,476.647,139.094,479.846,136.862z"
							/>
					</g>
				</g>
				<g>
					<g>
						<g>
							<path style="fill:#225DC7;" d="M479.527,144.93c-0.34-0.02-0.67-0.04-1-0.05c0.88-7.18,0.84-12.87-0.13-17.21
								c-0.48-2.14-1.18-3.95-2.11-5.44c-0.94-1.5-2.11-2.82-3.4-3.98c-2.77-2.47-6.04-4.17-8.59-5.34
								c-1.36-0.63-2.77-1.24-4.13-1.82c-0.87-0.37-1.75-0.75-2.63-1.13c-2.55-1.13-5.09-2.35-7.42-3.91
								c-5.15-3.45-9.44-8.69-12.49-15.16c-1.16-2.44-2.14-5.06-2.92-7.83c-2.49-8.88-2.86-18.21-3.03-27.79
								c0-0.28,0.22-0.51,0.49-0.51c0.32-0.02,0.51,0.21,0.51,0.49c0.17,9.51,0.53,18.78,3,27.54c0.94,3.34,2.17,6.46,3.67,9.31
								c2.89,5.56,6.77,10.07,11.33,13.12c1.75,1.17,3.64,2.16,5.56,3.05c1.43,0.67,2.89,1.29,4.32,1.9
								c1.37,0.59,2.79,1.19,4.16,1.83c2.09,0.97,4.66,2.27,7.06,4.07c2.03,1.5,3.94,3.35,5.36,5.63c1.31,2.09,2.19,4.76,2.65,8.03
								C480.357,133.82,480.267,138.87,479.527,144.93z"/>
						</g>
					</g>
					<g>
						<path style="fill:#225DC7;" d="M436.515,87.481c-0.054,0-0.107-0.008-0.16-0.026l-7.956-2.684
							c-0.262-0.088-0.402-0.372-0.314-0.633c0.088-0.262,0.369-0.403,0.634-0.314l7.561,2.551l3.212-5.776
							c0.134-0.242,0.439-0.328,0.68-0.194c0.241,0.134,0.328,0.438,0.193,0.68l-3.414,6.14
							C436.862,87.386,436.693,87.481,436.515,87.481z"/>
					</g>
					<g>
						<path style="fill:#225DC7;" d="M443.712,99.898h-6.98c-0.276,0-0.5-0.224-0.5-0.5c0-0.276,0.224-0.5,0.5-0.5h6.623
							l1.938-5.661c0.088-0.262,0.372-0.398,0.635-0.311c0.261,0.089,0.4,0.374,0.31,0.635l-2.053,5.999
							C444.117,99.762,443.926,99.898,443.712,99.898z"/>
					</g>
					<g>
						<path style="fill:#225DC7;" d="M452.466,111.532c-0.209,0-0.404-0.132-0.475-0.342c-0.087-0.262,0.055-0.545,0.316-0.632
							l4.826-1.609l0.877-5.494c0.044-0.273,0.289-0.461,0.573-0.415c0.272,0.043,0.458,0.3,0.415,0.572l-0.925,5.794
							c-0.029,0.184-0.159,0.337-0.336,0.396l-5.114,1.705C452.572,111.523,452.519,111.532,452.466,111.532z"/>
					</g>
					<g>
						<path style="fill:#225DC7;" d="M461.635,117.13c-0.225,0-0.428-0.151-0.485-0.378c-0.066-0.268,0.096-0.54,0.363-0.607
							l7.089-1.777l2.221-5.678c0.101-0.257,0.39-0.385,0.647-0.284c0.258,0.101,0.385,0.391,0.284,0.648l-2.314,5.918
							c-0.06,0.151-0.188,0.264-0.344,0.303l-7.339,1.84C461.716,117.125,461.675,117.13,461.635,117.13z"/>
					</g>
					<g>
						<path style="fill:#225DC7;" d="M471.773,124.8c-0.251,0-0.467-0.188-0.496-0.444c-0.031-0.274,0.166-0.522,0.44-0.553
							l5.607-0.635l3.055-5.165c0.142-0.238,0.447-0.315,0.686-0.176c0.237,0.14,0.316,0.447,0.176,0.685l-3.182,5.38
							c-0.08,0.135-0.219,0.225-0.374,0.243l-5.855,0.662C471.811,124.799,471.792,124.8,471.773,124.8z"/>
					</g>
					<g>
						<path style="fill:#225DC7;" d="M479.862,137.561c-0.03,0-0.06-0.002-0.09-0.008l-5.443-0.991
							c-0.272-0.049-0.451-0.31-0.402-0.581c0.049-0.273,0.314-0.456,0.582-0.402l5.278,0.96l5.912-2.987
							c0.245-0.124,0.547-0.026,0.672,0.221c0.124,0.247,0.025,0.547-0.221,0.672l-6.063,3.063
							C480.017,137.543,479.94,137.561,479.862,137.561z"/>
					</g>
				</g>
			</g>
			<g>
				<g>
					<g>
						<path style="fill:#00BCAD;" d="M598.287,142.35c-2.27,0.36-4.81,0.69-7.59,0.99c2.08-44,62.13-59.93,66.01-43.3
							C661.687,121.48,606.297,113.86,598.287,142.35z"/>
					</g>
				</g>
				<g>
					<path style="fill:#008C81;" d="M640.227,104.39c-9,2.64-20.53,6.64-29.9,14.18c-8.29,6.67-13.66,15.33-15.15,24.23
						c-0.34,0.05-0.68,0.09-1.03,0.13c1.46-9.25,6.99-18.25,15.55-25.14c9.51-7.65,21.16-11.69,30.25-14.36
						c0.27-0.08,0.54,0.08,0.62,0.34C640.647,104.04,640.497,104.32,640.227,104.39z"/>
				</g>
			</g>
			<g>
				<g>
					<g>
						<path style="fill:#00BCAD;" d="M588.897,143.53c-2.12,0.21-4.37,0.41-6.72,0.59c-10.11-57.4,22.01-80.78,34.52-71.32
							C633.138,85.22,586.747,106.64,588.897,143.53z"/>
					</g>
				</g>
				<g>
					<path style="fill:#008C81;" d="M602.427,88.3c-12.22,15.63-18.04,35.75-16.12,55.47c-0.32,0.03-0.65,0.06-0.99,0.09
						c-1.96-19.97,3.95-40.35,16.33-56.18c0.17-0.21,0.48-0.25,0.7-0.08C602.558,87.77,602.598,88.08,602.427,88.3z"/>
				</g>
			</g>
			<g>
				<g>
					<g>
						<path style="fill:#AC74E8;" d="M561.643,155.6c-0.969-2.867-0.737-6.12,0.628-8.821c1.365-2.701,3.846-4.817,6.729-5.738
							c0.651,2.947,0.3,6.163-1.145,8.812C566.409,152.502,564.473,154.553,561.643,155.6z"/>
					</g>
					<g>
						<path style="fill:#AC74E8;" d="M566.843,161.678c-0.207-3.265,0.991-6.595,3.231-8.979s5.489-3.788,8.76-3.785
							c0.078,3.262-1.212,6.707-3.519,9.015C573.01,160.237,570.105,161.752,566.843,161.678z"/>
					</g>
					<g>
						<path style="fill:#AC74E8;" d="M569.232,170.572c3.251,0.388,6.639-0.532,9.247-2.511c2.608-1.979,4.406-4.995,4.907-8.23
							c-3.744-0.619-7.855,0.98-10.298,3.884C571.466,165.644,570.109,168.209,569.232,170.572z"/>
					</g>
					<g>
						<path style="fill:#AC74E8;" d="M569.838,182.451c3.35-0.156,6.645-1.359,9.307-3.399c2.662-2.04,4.68-4.908,5.702-8.103
							c-3.362-0.354-7.02,0.524-9.675,2.618C572.517,175.66,570.277,179.099,569.838,182.451z"/>
					</g>
					<g>
						<path style="fill:#AC74E8;" d="M581.784,200.324c-2.186-1.783-3.51-4.51-3.818-7.314c-0.309-2.804,0.349-5.667,1.613-8.189
							c1.264-2.522,3.114-4.718,5.207-6.609c2.546,3.281,3.914,7.434,3.363,11.549C587.597,193.878,585.104,197.829,581.784,200.324
							z"/>
					</g>
					<g>
						<path style="fill:#AC74E8;" d="M584.981,170.902c0.552,3.395,2.297,6.639,5.028,8.731c2.73,2.092,6.461,2.927,9.746,1.91
							c-0.777-3.203-2.609-6.193-5.285-8.117S588.265,170.619,584.981,170.902z"/>
					</g>
					<g>
						<path style="fill:#AC74E8;" d="M583.401,159.731c2.479-2.05,6.032-2.636,9.106-1.688c3.074,0.949,5.623,3.343,6.962,6.268
							c-2.746,1.29-5.966,1.697-8.883,0.866C587.669,164.346,585.055,162.274,583.401,159.731z"/>
					</g>
					<g>
						<path style="fill:#AC74E8;" d="M578.862,148.713c1.939-2.121,4.722-3.49,7.595-3.565c2.873-0.076,5.785,1.193,7.563,3.45
							c-0.685,0.837-1.602,1.532-2.572,2.01c-1.964,0.968-4.278,1.042-6.419,0.582C582.889,150.73,580.794,149.742,578.862,148.713z
							"/>
					</g>
					<g>
						<path style="fill:#AC74E8;" d="M569.118,140.86c0.766-2.553,2.522-4.794,4.817-6.148c2.295-1.354,5.106-1.808,7.711-1.244
							c-0.373,2.004-1.725,3.763-3.37,4.967C575.734,140.295,572.202,141.497,569.118,140.86z"/>
					</g>
				</g>
				<g>
					<g>
						<path style="fill:#864AC4;" d="M582.687,196c-0.06,0.23-0.26,0.38-0.49,0.38c-0.04,0-0.08,0-0.12-0.01
							c-0.27-0.06-0.43-0.34-0.37-0.6c2.24-9.22,2.99-18.69,2.24-28.14c-0.45-5.7-1.4-10.11-2.98-13.89
							c-1.14-2.73-3.13-6.32-6.44-9.1c-0.71-0.6-1.48-1.16-2.31-1.67c-4.17-2.55-9.3-3.1-13.37-1.43c-2.03,0.83-3.79,2.23-5.13,3.97
							c-0.42,0.02-0.84,0.03-1.26,0.04c1.48-2.17,3.57-3.94,6.01-4.94c4.36-1.79,9.83-1.21,14.28,1.5c1.19,0.73,2.25,1.56,3.2,2.44
							c2.99,2.81,4.85,6.18,5.95,8.8c1.62,3.88,2.59,8.4,3.05,14.2C585.707,177.11,584.947,186.68,582.687,196z"/>
					</g>
					<g>
						<path style="fill:#864AC4;" d="M566.719,146.392c-0.075,0-0.151-0.017-0.223-0.052c-0.247-0.124-0.348-0.423-0.225-0.671
							l2.446-4.911c0.053-0.106,0.142-0.19,0.251-0.237l4.271-1.821c0.255-0.108,0.548,0.01,0.656,0.264
							c0.108,0.254-0.01,0.548-0.264,0.656l-4.102,1.749l-2.364,4.747C567.079,146.29,566.903,146.392,566.719,146.392z"/>
					</g>
					<g>
						<path style="fill:#864AC4;" d="M574.657,153.093c-0.141,0-0.28-0.059-0.379-0.174c-0.181-0.209-0.156-0.525,0.053-0.705
							l4.293-3.696c0.079-0.068,0.178-0.11,0.281-0.119l5.779-0.517c0.272-0.031,0.518,0.177,0.543,0.454
							c0.024,0.275-0.179,0.518-0.453,0.542l-5.62,0.503l-4.171,3.591C574.888,153.053,574.773,153.093,574.657,153.093z"/>
					</g>
					<g>
						<path style="fill:#864AC4;" d="M577.405,164.267c-0.159,0-0.316-0.076-0.413-0.218c-0.155-0.229-0.097-0.54,0.132-0.695
							l5.937-4.046c0.116-0.079,0.264-0.106,0.398-0.073l4.871,1.177c0.269,0.064,0.434,0.335,0.369,0.603
							c-0.065,0.268-0.33,0.437-0.604,0.369l-4.655-1.124l-5.754,3.921C577.6,164.239,577.502,164.267,577.405,164.267z"/>
					</g>
					<g>
						<path style="fill:#864AC4;" d="M579.053,174.648c-0.165,0-0.327-0.082-0.422-0.232c-0.148-0.233-0.079-0.542,0.154-0.69
							l5.582-3.542c0.177-0.111,0.402-0.102,0.569,0.024l4.677,3.542c0.221,0.167,0.264,0.48,0.097,0.7
							c-0.168,0.221-0.482,0.262-0.7,0.097l-4.4-3.333l-5.289,3.356C579.238,174.623,579.145,174.648,579.053,174.648z"/>
					</g>
				</g>
			</g>
			<g>
				<g>
					<g>
						<path style="fill:#AC74E8;" d="M543.485,146.581c-3.047-0.201-13.563,4.299-11.753,7.674S542.765,151.428,543.485,146.581z"/>
					</g>
					<g>
						<path style="fill:#AC74E8;" d="M545.867,157.598c-3.375-0.603-13.94,4.631-11.886,8.054
							C536.035,169.076,544.938,162.897,545.867,157.598z"/>
					</g>
					<g>
						<path style="fill:#AC74E8;" d="M546.522,167.98c-3.541-0.567-13.862,5.889-12.492,8.775
							C535.4,179.641,545.074,175.004,546.522,167.98z"/>
					</g>
					<g>
						<path style="fill:#AC74E8;" d="M545.867,179.675c-4.06,3.683-7.63,11.118-3.717,13.466
							C546.063,195.489,548.592,185.527,545.867,179.675z"/>
					</g>
					<g>
						<path style="fill:#AC74E8;" d="M546.522,167.98c4.872-0.861,12.649,4.373,10.399,7.944
							C554.671,179.495,547.52,172.461,546.522,167.98z"/>
					</g>
					<g>
						<path style="fill:#AC74E8;" d="M545.867,157.598c3.277-2.413,13.94,1.5,12.277,5.56
							C556.481,167.217,547.237,160.989,545.867,157.598z"/>
					</g>
					<g>
						<path style="fill:#AC74E8;" d="M543.485,146.581c4.681-1.668,13.633,1.414,11.774,4.74
							C553.4,154.647,546.16,150.385,543.485,146.581z"/>
					</g>
				</g>
				<g>
					<g>
						<path style="fill:#864AC4;" d="M544.927,188.3c-0.05,0.24-0.26,0.4-0.49,0.4c-0.03,0-0.07,0-0.1-0.01
							c-0.27-0.06-0.44-0.33-0.38-0.6c2.49-11.55,2.73-23.8,0.67-35.44c-0.47-2.71-1.04-4.98-2.11-6.89
							c-0.28-0.52-0.6-1.01-0.96-1.48c-1.68-2.14-4.81-3.76-7.58-2.72c-1.54,0.58-2.91,2.01-3.74,3.91
							c-0.06,0.14-0.11,0.27-0.17,0.41h-1.06c0.1-0.28,0.2-0.54,0.32-0.81c0.95-2.18,2.48-3.76,4.3-4.45
							c3.21-1.21,6.82,0.62,8.71,3.05c0.5,0.65,0.93,1.34,1.3,2.07c1.04,2.08,1.57,4.44,1.98,6.74
							C547.687,164.24,547.457,176.63,544.927,188.3z"/>
					</g>
					<g>
						<path style="fill:#864AC4;" d="M539.508,150.109c-0.15,0-0.3-0.068-0.397-0.197c-0.168-0.22-0.125-0.533,0.095-0.701
							l3.977-3.028c0.137-0.105,0.321-0.131,0.483-0.068l3.915,1.514c0.257,0.1,0.386,0.389,0.286,0.646
							c-0.101,0.258-0.392,0.385-0.647,0.286l-3.654-1.413l-3.754,2.858C539.721,150.076,539.615,150.109,539.508,150.109z"/>
					</g>
					<g>
						<path style="fill:#864AC4;" d="M542.117,161.294c-0.142,0-0.281-0.06-0.381-0.176c-0.179-0.21-0.153-0.526,0.057-0.705
							l3.75-3.196c0.135-0.116,0.322-0.151,0.49-0.091l5.186,1.826c0.261,0.092,0.397,0.378,0.306,0.638
							c-0.092,0.26-0.378,0.397-0.638,0.306l-4.914-1.73l-3.531,3.009C542.347,161.254,542.232,161.294,542.117,161.294z"/>
					</g>
					<g>
						<path style="fill:#864AC4;" d="M542.802,171.956c-0.134,0-0.267-0.053-0.365-0.159c-0.189-0.202-0.178-0.518,0.023-0.707
							l3.72-3.476c0.188-0.175,0.474-0.18,0.667-0.014l3.747,3.215c0.21,0.18,0.234,0.496,0.055,0.705
							c-0.181,0.21-0.496,0.234-0.705,0.054l-3.407-2.924l-3.393,3.17C543.047,171.912,542.924,171.956,542.802,171.956z"/>
					</g>
				</g>
			</g>
			<g>
				<g>
					<g>
						<path style="fill:#008C81;" d="M453.847,143.17c-0.38-0.04-0.75-0.08-1.12-0.12c-4.07-10.11-12.11-18.59-22.03-23.1
							c-10.99-4.99-24.14-5.03-35.16-0.11c-0.26,0.11-0.55,0-0.67-0.25c-0.11-0.25,0-0.55,0.26-0.66c11.28-5.04,24.73-5,35.98,0.11
							C441.427,123.73,449.747,132.62,453.847,143.17z"/>
					</g>
					<path style="fill:#008C81;" d="M404.834,112.076c2.022-0.163,9.457-0.528,10.207,3.6c0.75,4.128-5.315,7.324-8.315,7.747
						C403.726,123.848,401.671,114.946,404.834,112.076z"/>
					<path style="fill:#008C81;" d="M442.882,127.666c0,0,1.246-12.686-3.988-12.687
						C433.66,114.978,442.882,127.666,442.882,127.666z"/>
					<path style="fill:#008C81;" d="M442.882,127.666c0,0-19.004,14.264-22.331,3.283
						C417.226,119.967,442.882,127.666,442.882,127.666z"/>
				</g>
				<g>
					<g>
						<g>
							<path style="fill:none;stroke:#008C81;stroke-linecap:round;stroke-linejoin:round;stroke-miterlimit:10;" d="
								M401.765,119.283c-5.513,8.252-14.523,14.082-24.31,15.728"/>
							<g>
								<path style="fill:#00BCAD;" d="M375.389,132.949c1.777-1.141,4.142-0.626,5.283,1.15c1.141,1.777,0.626,4.142-1.15,5.283
									c-1.777,1.141-4.142,0.626-5.283-1.15C373.097,136.456,373.612,134.09,375.389,132.949z"/>
								<path style="fill:#008C81;" d="M374.673,135.713c0.428-0.275,1.231,0.212,1.794,1.087c0.563,0.876,0.671,1.808,0.243,2.083
									c-0.428,0.275-1.231-0.212-1.794-1.087C374.354,136.921,374.245,135.988,374.673,135.713z"/>
							</g>
						</g>
						<g>
							<path style="fill:none;stroke:#008C81;stroke-linecap:round;stroke-linejoin:round;stroke-miterlimit:10;" d="
								M402.157,114.979c-9.818,0.469-19.383,4.972-26,12.241"/>
							<g>
								<path style="fill:#00BCAD;" d="M373.883,123.93c1.776-1.141,4.142-0.626,5.283,1.15c1.141,1.776,0.626,4.142-1.15,5.283
									c-1.776,1.141-4.142,0.627-5.283-1.15C371.591,127.437,372.106,125.072,373.883,123.93z"/>
								<path style="fill:#008C81;" d="M373.167,126.695c0.428-0.275,1.231,0.211,1.794,1.087c0.563,0.876,0.671,1.808,0.243,2.084
									c-0.428,0.275-1.232-0.212-1.794-1.087C372.848,127.902,372.739,126.97,373.167,126.695z"/>
							</g>
						</g>
					</g>
					<path style="fill:#00BCAD;" d="M408.091,115.703c1.046,9.332-1.12,21.204-20.704,28.396
						c-1.993-8.752-1.085-20.325,7.941-24.959c-10.281,0.003-16.52-4.243-19.38-10.482
						C391.46,103.289,401.945,106.405,408.091,115.703z"/>
					<path style="fill:none;stroke:#008C81;stroke-linecap:round;stroke-linejoin:round;stroke-miterlimit:10;" d="M394.735,119.424
						c4.174-1.813,8.676-2.869,13.221-3.1"/>
				</g>
			</g>
		</g>
	</g>
</g>
</svg>
