<svg xmlns="http://www.w3.org/2000/svg" width="128" height="128" fill="white">
  <path
    d="M114 15.25H14A9.761 9.761 0 0 0 4.25 25v77A10.762 10.762 0 0 0 15 112.75h98A10.762 10.762 0 0 0 123.75 102V25a9.761 9.761 0 0 0-9.75-9.75zm6.25 9.75v11.683H52.888L61.37 18.75H114a6.257 6.257 0 0 1 6.25 6.25zM14 18.75h43.5l-8.484 17.933H7.75V25A6.257 6.257 0 0 1 14 18.75zm99 90.5H15A7.258 7.258 0 0 1 7.75 102V40.183h112.5V102a7.258 7.258 0 0 1-7.25 7.25z" />
  <path
    d="M21.57 33.467a5.75 5.75 0 1 0-5.75-5.75 5.756 5.756 0 0 0 5.75 5.75zm0-8a2.25 2.25 0 1 1-2.25 2.25 2.253 2.253 0 0 1 2.25-2.25zM37.626 33.467a5.75 5.75 0 1 0-5.75-5.75 5.756 5.756 0 0 0 5.75 5.75zm0-8a2.25 2.25 0 1 1-2.25 2.25 2.253 2.253 0 0 1 2.25-2.25zM67.522 29.467h44.745a1.75 1.75 0 0 0 0-3.5H67.522a1.75 1.75 0 0 0 0 3.5zM110.067 50.967H64a1.75 1.75 0 0 0-1.75 1.75v11a1.75 1.75 0 0 0 1.75 1.75h46.067a1.749 1.749 0 0 0 1.75-1.75v-11a1.749 1.749 0 0 0-1.75-1.75zm-1.75 11H65.75v-7.5h42.567zM110.067 72.967H64a1.75 1.75 0 1 0 0 3.5h46.067a1.75 1.75 0 0 0 0-3.5zM110.067 83.967H64a1.75 1.75 0 1 0 0 3.5h46.067a1.75 1.75 0 0 0 0-3.5zM110.067 94.967H64a1.75 1.75 0 1 0 0 3.5h46.067a1.75 1.75 0 0 0 0-3.5zM34.9 75.209a8.478 8.478 0 1 0-8.477-8.478 8.487 8.487 0 0 0 8.477 8.478zm0-13.455a4.978 4.978 0 1 1-4.977 4.977 4.982 4.982 0 0 1 4.977-4.977z" />
  <path
    d="M53.615 87.29V52.717a1.749 1.749 0 0 0-1.75-1.75H17.933a1.749 1.749 0 0 0-1.75 1.75v44a1.749 1.749 0 0 0 1.75 1.75h33.932a1.749 1.749 0 0 0 1.75-1.75v-9.368a.581.581 0 0 0 0-.059zm-3.5-32.823v29.52A29.2 29.2 0 0 0 34.9 79.94a29.2 29.2 0 0 0-15.217 4.048V54.467zm-30.432 40.5v-6.711c3.8-3.058 9.283-4.816 15.217-4.816s11.414 1.76 15.215 4.814v6.713z" />
</svg>