<svg xmlns="http://www.w3.org/2000/svg" width="128" height="128" xml:space="preserve">
  <path fill="#ffffff"
    d="M116.288 92.838h-4V52.875c0-6.149-1.318-12.057-3.92-17.562l3.617-1.709c2.854 6.043 4.303 12.526 4.303 19.271v39.963zM55.72 125.425c-29.468 0-44.409-10.964-44.409-32.587V52.875c0-6.837 1.486-13.402 4.418-19.512l3.606 1.73c-2.67 5.566-4.024 11.548-4.024 17.782v39.963c0 19.236 13.218 28.587 40.409 28.587v4z" />
  <path fill="#ffffff"
    d="M61.78 125.449h-9.539c-3.426 0-6.213-2.804-6.213-6.251s2.787-6.251 6.213-6.251h9.539c3.425 0 6.211 2.804 6.211 6.251s-2.786 6.251-6.211 6.251zm-9.539-8.502c-1.22 0-2.213 1.01-2.213 2.251s.993 2.251 2.213 2.251h9.539c1.219 0 2.211-1.01 2.211-2.251s-.992-2.251-2.211-2.251h-9.539zM19.402 38.256a7.398 7.398 0 0 1-3.86-1.089c-3.506-2.139-4.635-6.757-2.517-10.292 9.12-15.23 25.081-24.323 42.696-24.323h16.157c17.615 0 33.577 9.093 42.698 24.324 2.118 3.535.988 8.153-2.52 10.293a7.383 7.383 0 0 1-3.856 1.088c-2.637 0-5.024-1.357-6.389-3.629C95.413 23.939 84.224 17.56 71.877 17.56H55.72c-12.342 0-23.532 6.379-29.933 17.065a7.482 7.482 0 0 1-6.385 3.631zM55.72 6.551c-16.195 0-30.873 8.366-39.264 22.378-.994 1.66-.469 3.823 1.17 4.824a3.417 3.417 0 0 0 4.729-1.183c7.13-11.904 19.603-19.01 33.365-19.01h16.157c13.766 0 26.239 7.106 33.364 19.01a3.43 3.43 0 0 0 2.958 1.686c.623 0 1.234-.173 1.77-.501 1.644-1.003 2.169-3.166 1.175-4.825-8.392-14.013-23.072-22.379-39.267-22.379H55.72zM15.572 101.688C6.985 101.688 0 94.644 0 85.986V69.023c0-8.657 6.985-15.7 15.572-15.7v4C9.191 57.323 4 62.572 4 69.023v16.963c0 6.452 5.191 11.701 11.572 11.701v4.001z" />
  <path fill="#ffffff"
    d="M23.291 105.232h-5.095c-3.618 0-6.561-2.964-6.561-6.606v-41.96c0-3.643 2.943-6.606 6.561-6.606h5.095c3.618 0 6.562 2.963 6.562 6.606v41.96c0 3.643-2.944 6.606-6.562 6.606zM18.196 54.06c-1.412 0-2.561 1.169-2.561 2.606v41.96c0 1.438 1.149 2.606 2.561 2.606h5.095c1.413 0 2.562-1.169 2.562-2.606v-41.96c0-1.437-1.149-2.606-2.562-2.606h-5.095z" />
  <g>
    <path fill="#ffffff"
      d="M112.43 101.975v-4c6.38 0 11.57-5.251 11.57-11.705V69.307c0-6.454-5.19-11.704-11.57-11.704v-4c8.586 0 15.57 7.044 15.57 15.704V86.27c0 8.66-6.984 15.705-15.57 15.705z" />
    <path fill="#ffffff"
      d="M109.809 105.234h-5.096c-3.618 0-6.563-2.964-6.563-6.606V56.667c0-3.642 2.944-6.604 6.563-6.604h5.096c3.617 0 6.56 2.962 6.56 6.604v41.961c-.001 3.643-2.943 6.606-6.56 6.606zm-5.096-51.171c-1.413 0-2.563 1.168-2.563 2.604v41.961c0 1.438 1.149 2.606 2.563 2.606h5.096c1.411 0 2.56-1.169 2.56-2.606V56.667c0-1.436-1.148-2.604-2.56-2.604h-5.096z" />
  </g>
</svg>