<svg xmlns="http://www.w3.org/2000/svg" width="128" height="128" xml:space="preserve">
  <path fill="#ffffff"
    d="M43.948 63.442 1.1 19.845 20.605 0l43.043 43.795-2.858 2.809L20.605 5.719 6.721 19.845l40.086 40.787zM107.397 128 60.508 80.291l2.859-2.811 44.03 44.8 13.882-14.124-44.3-45.077 2.861-2.81 47.06 47.887z" />
  <path fill="#ffffff"
    d="m26.423 8.824 2.859 2.812-8.031 8.166-2.86-2.812zM33.662 16.198l2.86 2.81-4.32 4.396-2.86-2.81zM40.91 23.565l2.86 2.81-8.028 8.17-2.86-2.81zM48.152 30.938l2.86 2.81-4.323 4.398-2.86-2.81zM55.395 38.31l2.858 2.81-8.028 8.166-2.859-2.81zM84.374 67.792l2.86 2.812-8.026 8.167-2.861-2.812zM91.62 75.163l2.859 2.81-4.325 4.4-2.86-2.81zM98.858 82.526l2.86 2.809-8.021 8.168-2.86-2.808zM106.104 89.906l2.857 2.812-4.325 4.396-2.858-2.812zM113.353 97.275l2.86 2.812-8.029 8.169-2.86-2.812z" />
  <g>
    <path fill="#ffffff"
      d="m4.758 124.254 6.12-21.084 2.423-2.466 2.86 2.81-1.715 1.745-3.782 13.034 12.741-3.829 1.709-1.739 2.86 2.811-2.431 2.472z" />
    <path fill="#ffffff"
      d="m101.93 15.248 9.982 10.157-85.206 86.699-9.984-10.158 85.208-86.698m0-5.516-90.628 92.214 15.406 15.672 90.625-92.213L101.93 9.732z" />
    <path fill="#ffffff"
      d="m116.529 25.548-2.859-2.81 4.486-4.563-9.109-9.287-4.445 4.521-2.859-2.81 4.806-4.89a3.326 3.326 0 0 1 2.4-.988h.002c1.036 0 2.073.453 2.845 1.243l9.302 9.461c1.512 1.536 1.615 3.836.237 5.235l-4.806 4.888z" />
  </g>
</svg>