<svg xmlns="http://www.w3.org/2000/svg" viewBox="0 0 48 48" fill="white">
  <g data-name="Writing a diary">
    <path
      d="M33 18V3a3 3 0 0 0-3-3H3a3 3 0 0 0-3 3v37a3 3 0 0 0 3 3h17v4a1 1 0 0 0 1.32 1l2.68-.9c2.85 1 3.05 1.15 3.58.76S28 46.85 28 43h2a3 3 0 0 0 3-3V26a2 2 0 0 0 2-2v-4a2 2 0 0 0-2-2zM2 40V3a1 1 0 0 1 1-1h2v39H3a1 1 0 0 1-1-1zm24 5.61c-2.43-.81-1.54-.82-4 0V43h4zM31 40a1 1 0 0 1-1 1H7V2h23a1 1 0 0 1 1 1v15h-3a4 4 0 0 0 0 8h3zm-3-16a2 2 0 0 1 0-4h5v4z" />
    <path
      d="M28.71 21.29a1 1 0 1 0 0 1.42 1 1 0 0 0 0-1.42zM13 16h12a1 1 0 0 0 1-1V8a1 1 0 0 0-1-1H13a1 1 0 0 0-1 1v7a1 1 0 0 0 1 1zm1-7h10v5H14zM25 29H13a1 1 0 0 0 0 2h12a1 1 0 0 0 0-2zM25 33H13a1 1 0 0 0 0 2h12a1 1 0 0 0 0-2zM45 10c0-1 .16-2-1-2.72V5a3 3 0 0 0-6 0v2.28A2 2 0 0 0 37 9v23.89c0 1.84.76 2.65 3 6.39V41a1 1 0 0 0 2 0v-1.72c2.44-4.07 3-4.64 3-6.39V12a1 1 0 0 1 1 1v9a1 1 0 0 0 2 0v-9a3 3 0 0 0-3-3zm-6-1h4v15h-4zm1-4a1 1 0 0 1 2 0v2h-2zm1 32.06c-2.49-4.15-2-2.16-2-11.06h4c0 9 .49 6.9-2 11.06z" />
  </g>
</svg>